<svg xmlns="http://www.w3.org/2000/svg" width="97.479" height="114.6" viewBox="0 0 97.479 114.6"><g transform="translate(-36.073)"><g transform="translate(36.073)"><path d="M161.435,61.75h.759c6.953-.119,12.578-2.563,16.731-7.238,9.137-10.3,7.618-27.956,7.452-29.641-.593-12.649-6.574-18.7-11.51-21.525A26.386,26.386,0,0,0,162.1,0h-.4a26.427,26.427,0,0,0-12.768,3.251c-4.984,2.824-11.059,8.876-11.652,21.62-.166,1.685-1.685,19.341,7.452,29.641C148.857,59.187,154.481,61.631,161.435,61.75ZM143.612,25.464c0-.071.024-.142.024-.19C144.419,8.259,156.5,6.431,161.672,6.431h.285c6.408.142,17.3,2.753,18.036,18.843a.463.463,0,0,0,.024.19c.024.166,1.685,16.3-5.862,24.8-2.99,3.37-6.977,5.031-12.222,5.079H161.7c-5.221-.047-9.232-1.709-12.2-5.079C141.975,41.815,143.588,25.606,143.612,25.464Z" transform="translate(-113.111)"/><path d="M133.545,288.756v-.071c0-.19-.024-.38-.024-.593-.142-4.7-.451-15.687-10.75-19.2-.071-.024-.166-.047-.237-.071a68.477,68.477,0,0,1-19.7-8.971,3.2,3.2,0,0,0-3.678,5.245,73.913,73.913,0,0,0,21.667,9.9c5.529,1.97,6.146,7.879,6.313,13.29a4.769,4.769,0,0,0,.024.593,43.076,43.076,0,0,1-.5,7.333c-3.845,2.183-18.914,9.73-41.839,9.73-22.83,0-37.994-7.57-41.863-9.754a40.781,40.781,0,0,1-.5-7.333c0-.19.024-.38.024-.593.166-5.411.783-11.32,6.313-13.29a74.6,74.6,0,0,0,21.667-9.9,3.2,3.2,0,1,0-3.678-5.245,67.726,67.726,0,0,1-19.7,8.971c-.095.024-.166.047-.237.071-10.3,3.536-10.608,14.524-10.75,19.2a4.767,4.767,0,0,1-.024.593v.071c-.024,1.234-.047,7.57,1.21,10.75a3.045,3.045,0,0,0,1.234,1.5c.712.475,17.775,11.344,46.324,11.344s45.612-10.893,46.324-11.344a3.175,3.175,0,0,0,1.234-1.5C133.593,296.326,133.569,289.99,133.545,288.756Z" transform="translate(-36.073 -197.721)"/></g></g></svg>