<svg xmlns="http://www.w3.org/2000/svg" width="103.659" height="121.867" viewBox="0 0 103.659 121.867"><g transform="translate(-36.073)"><g transform="translate(36.073)"><path d="M162.979,65.665h.808c7.394-.126,13.375-2.726,17.792-7.7,9.716-10.953,8.1-29.729,7.924-31.52-.631-13.451-6.99-19.886-12.24-22.889A28.059,28.059,0,0,0,163.685,0h-.429a28.1,28.1,0,0,0-13.577,3.457c-5.3,3-11.76,9.438-12.391,22.99-.177,1.792-1.792,20.568,7.924,31.52C149.6,62.94,155.585,65.539,162.979,65.665ZM144.026,27.079c0-.076.025-.151.025-.2.833-18.095,13.678-20.038,19.18-20.038h.3c6.814.151,18.4,2.927,19.18,20.038a.492.492,0,0,0,.025.2c.025.177,1.792,17.337-6.233,26.372-3.18,3.584-7.42,5.35-13,5.4h-.252c-5.552-.05-9.817-1.817-12.972-5.4C142.285,44.467,144,27.23,144.026,27.079Z" transform="translate(-111.591)"/><path d="M139.726,290.627v-.076c0-.2-.025-.4-.025-.631-.151-5-.479-16.681-11.432-20.416-.076-.025-.177-.05-.252-.076a72.819,72.819,0,0,1-20.946-9.539,3.406,3.406,0,1,0-3.912,5.577A78.6,78.6,0,0,0,126.2,275.99c5.88,2.095,6.536,8.379,6.713,14.132a5.072,5.072,0,0,0,.025.631,45.806,45.806,0,0,1-.53,7.8c-4.088,2.322-20.113,10.347-44.492,10.347-24.277,0-40.4-8.05-44.517-10.372a43.366,43.366,0,0,1-.53-7.8c0-.2.025-.4.025-.631.177-5.754.833-12.038,6.713-14.132a79.334,79.334,0,0,0,23.041-10.524,3.406,3.406,0,1,0-3.912-5.577A72.021,72.021,0,0,1,47.789,269.4c-.1.025-.177.05-.252.076C36.584,273.239,36.256,284.924,36.1,289.9a5.069,5.069,0,0,1-.025.631v.076c-.025,1.312-.05,8.05,1.287,11.432a3.238,3.238,0,0,0,1.312,1.59c.757.5,18.9,12.063,49.261,12.063s48.5-11.584,49.261-12.063a3.377,3.377,0,0,0,1.312-1.59C139.776,298.678,139.751,291.939,139.726,290.627Z" transform="translate(-36.073 -193.82)"/></g></g></svg>