<svg width="99" height="99" viewBox="0 0 99 99" fill="none" xmlns="http://www.w3.org/2000/svg">
<g clip-path="url(#clip0)">
<path d="M49.4 0C39.6296 0 30.0786 2.89726 21.9548 8.3254C13.831 13.7535 7.49932 21.4688 3.76035 30.4954C0.0213814 39.5221 -0.956903 49.4548 0.949206 59.0375C2.85532 68.6201 7.56021 77.4224 14.4689 84.3311C21.3776 91.2398 30.1799 95.9447 39.7625 97.8508C49.3452 99.7569 59.2779 98.7786 68.3046 95.0396C77.3312 91.3007 85.0465 84.969 90.4746 76.8452C95.9027 68.7214 98.8 59.1704 98.8 49.4C98.7852 36.3029 93.5758 23.7464 84.3147 14.4853C75.0536 5.22421 62.4971 0.0148218 49.4 0ZM49.4 88.289C41.7085 88.2888 34.1898 86.0078 27.7947 81.7345C21.3996 77.4612 16.4152 71.3875 13.472 64.2815C10.5287 57.1754 9.75871 49.3562 11.2594 41.8125C12.76 34.2689 16.4639 27.3396 21.9027 21.901C27.3414 16.4623 34.2708 12.7586 41.8145 11.2582C49.3582 9.75771 57.1774 10.5279 64.2834 13.4713C71.3894 16.4148 77.463 21.3993 81.7361 27.7945C86.0092 34.1898 88.29 41.7085 88.29 49.4C88.2784 59.7106 84.1773 69.5956 76.8865 76.8862C69.5957 84.1768 59.7106 88.2776 49.4 88.289Z" fill="white"/>
<path d="M75.144 47.875H52.944V21.184C52.9525 20.6445 52.8535 20.1087 52.6529 19.6078C52.4523 19.1069 52.154 18.6509 51.7755 18.2663C51.3969 17.8818 50.9457 17.5764 50.448 17.368C49.9503 17.1596 49.4161 17.0522 48.8765 17.0522C48.3369 17.0522 47.8027 17.1596 47.305 17.368C46.8073 17.5764 46.3561 17.8818 45.9775 18.2663C45.599 18.6509 45.3007 19.1069 45.1001 19.6078C44.8995 20.1087 44.8005 20.6445 44.809 21.184V51.942C44.809 53.0209 45.2376 54.0556 46.0005 54.8185C46.7634 55.5814 47.7981 56.01 48.877 56.01H75.144C76.2117 55.9933 77.23 55.5573 77.9792 54.7964C78.7283 54.0354 79.1482 53.0104 79.1482 51.9425C79.1482 50.8746 78.7283 49.8496 77.9792 49.0886C77.23 48.3276 76.2117 47.8917 75.144 47.875V47.875Z" fill="white"/>
</g>
<defs>
<clipPath id="clip0">
<rect width="98.801" height="98.8" fill="white"/>
</clipPath>
</defs>
</svg>
