<svg xmlns="http://www.w3.org/2000/svg" width="127.142" height="136.972" viewBox="0 0 127.142 136.972"><defs><style>.a{fill:#354ea0;}</style></defs><g transform="translate(0 0)"><path class="a" d="M21.333,379.925a7.409,7.409,0,0,0,7.4,7.4H68.179a7.406,7.406,0,0,0,7.4-7.4V362.666H21.333Z" transform="translate(-16.402 -250.349)"/><path class="a" d="M124.493,65.677H104.945l-3.1-8.982c-1.356-3.92-4.084-6.359-7.109-6.359H82.547l-8.958-4.319a32.493,32.493,0,0,0-14.24-3.352H7.946C3.571,42.666,0,47.828,0,54.172V84.853C0,91.2,3.571,96.359,7.946,96.359h12.8l-4.667,43.89-9.022,9.8h54.4L45.31,140.026l1.8-16.921a1.927,1.927,0,0,0,.577.1c1.187,0,2.267-1.158,2.564-2.907L52.9,104.957c.355-2.056-.509-4.134-1.928-4.648a1.821,1.821,0,0,0-1.457.138l.44-4.088h9.393a32.493,32.493,0,0,0,14.24-3.352l8.958-4.319h12.19c3.03,0,5.753-2.439,7.109-6.359l3.1-8.982h19.553c1.462,0,2.649-1.718,2.649-3.835S125.955,65.677,124.493,65.677ZM29.137,81.018H13.244c-1.462,0-2.649-1.718-2.649-3.835s1.187-3.835,2.649-3.835H29.137c1.462,0,2.649,1.718,2.649,3.835S30.6,81.018,29.137,81.018Zm0-15.341H13.244c-1.462,0-2.649-1.718-2.649-3.835s1.187-3.835,2.649-3.835H29.137c1.462,0,2.649,1.718,2.649,3.835S30.6,65.677,29.137,65.677ZM84.761,77.183c0,2.117-1.187,3.835-2.649,3.835s-2.649-1.718-2.649-3.835V61.842c0-2.117,1.187-3.835,2.649-3.835s2.649,1.718,2.649,3.835Z" transform="translate(0 -42.666)"/></g></svg>