<svg xmlns="http://www.w3.org/2000/svg" width="29.454" height="29.454" viewBox="0 0 29.454 29.454"><defs><style>.a{fill:#cecccc;}</style></defs><g transform="translate(0 0)"><path class="a" d="M22.8,25.753A2.944,2.944,0,1,0,19.857,22.8,2.953,2.953,0,0,0,22.8,25.753Z" transform="translate(-8.077 -8.077)"/><path class="a" d="M33.731,16.8V13.96h-.37l-2.47.008.009,2.84Z" transform="translate(-12.566 -5.679)"/><path class="a" d="M14.727,0A14.727,14.727,0,1,0,29.455,14.727,14.744,14.744,0,0,0,14.727,0ZM23.1,13.009v6.858A3.241,3.241,0,0,1,19.866,23.1H9.589a3.24,3.24,0,0,1-3.237-3.238V9.589A3.24,3.24,0,0,1,9.589,6.352H19.865A3.241,3.241,0,0,1,23.1,9.589Z"/><path class="a" d="M24.783,23.648a4.581,4.581,0,1,1-8.825-1.719h-2.5v6.858a1.6,1.6,0,0,0,1.605,1.6H25.339a1.606,1.606,0,0,0,1.605-1.6V21.929h-2.5A4.519,4.519,0,0,1,24.783,23.648Z" transform="translate(-5.474 -8.92)"/></g></svg>