<svg xmlns="http://www.w3.org/2000/svg" width="57.647" height="42.8" viewBox="0 0 57.647 42.8"><defs><style>.a{fill:#fff;stroke:#707070;}</style></defs><g transform="translate(0.5 0.5)"><path class="a" d="M56.59,58.467a1.186,1.186,0,0,1-.24,1.128,1.708,1.708,0,0,1-1.14.645q-10.262,1.289-10.382,8.595h6.181a1.653,1.653,0,0,1,1.14.43,1.327,1.327,0,0,1,.48,1.021V91.019a1.382,1.382,0,0,1-.48,1.074,1.652,1.652,0,0,1-1.14.43H31.626a1.765,1.765,0,0,1-1.171-.43,1.348,1.348,0,0,1-.51-1.074V73.078q0-10.636,5.821-16.223T53.29,50.731A1.622,1.622,0,0,1,54.37,51a1.363,1.363,0,0,1,.6.859l1.621,6.607Zm-29.946,0a1.186,1.186,0,0,1-.24,1.128,1.609,1.609,0,0,1-1.14.645Q15,61.528,14.883,68.834h6.181a1.652,1.652,0,0,1,1.14.43,1.327,1.327,0,0,1,.48,1.021V91.019a1.382,1.382,0,0,1-.48,1.074,1.652,1.652,0,0,1-1.14.43H1.68a1.765,1.765,0,0,1-1.17-.43A1.348,1.348,0,0,1,0,91.019V73.078Q0,62.442,5.821,56.855t17.523-6.124a1.622,1.622,0,0,1,1.08.269,1.366,1.366,0,0,1,.6.859Z" transform="translate(0 -50.724)"/></g></svg>