<svg xmlns="http://www.w3.org/2000/svg" width="17.569" height="25.034" viewBox="0 0 17.569 25.034"><defs><style>.a{fill:#505050;}</style></defs><g transform="translate(0 0)"><path class="a" d="M81.181,0A8.785,8.785,0,0,0,72.4,8.785a8.662,8.662,0,0,0,.075,1.092c.751,6.862,8.139,14.771,8.139,14.771a1.368,1.368,0,0,0,.381.3l.006,0,.246.078.246-.078.006,0a1.462,1.462,0,0,0,.381-.3s7.282-7.923,8.015-14.787A8.729,8.729,0,0,0,81.181,0Zm0,14.436A5.651,5.651,0,1,1,86.83,8.785,5.658,5.658,0,0,1,81.181,14.436Z" transform="translate(-72.396)"/></g></svg>