<svg width="136" height="138" viewBox="0 0 136 138" fill="none" xmlns="http://www.w3.org/2000/svg">
<g clip-path="url(#clip0)">
<path d="M101.711 40.853V28.837C101.718 28.5814 101.677 28.3268 101.591 28.086L99.191 20.877C99.0346 20.3953 98.7292 19.9756 98.3189 19.6787C97.9085 19.3818 97.4145 19.2229 96.908 19.225V0H92.102V19.225C91.5965 19.2272 91.1045 19.3877 90.695 19.6841C90.2855 19.9804 89.9791 20.3976 89.819 20.877L87.419 28.086C87.3354 28.3274 87.2948 28.5816 87.299 28.837V40.853H82.493V45.659H87.299V105.736C87.3016 106.372 87.5553 106.981 88.0049 107.43C88.4544 107.88 89.0633 108.133 89.699 108.136H92.099V117.748C92.0964 118.384 91.8427 118.993 91.3932 119.442C90.9436 119.892 90.3347 120.145 89.699 120.148H77.68V124.954H89.696C90.6433 124.956 91.5818 124.771 92.4574 124.41C93.3331 124.048 94.1287 123.517 94.7985 122.848C95.4684 122.178 95.9993 121.382 96.3608 120.506C96.7223 119.631 96.9072 118.692 96.905 117.745V108.14H99.305C99.9407 108.137 100.55 107.884 100.999 107.434C101.449 106.985 101.702 106.376 101.705 105.74V45.659H106.511V40.853H101.711ZM96.905 103.334H92.099V45.659H96.905V103.334ZM96.905 40.853H92.099V29.228L93.841 24.028H95.193L96.935 29.228V40.853H96.905Z" fill="white"/>
<path d="M99.548 107.236H97.836C97.5516 107.237 97.2698 107.182 97.0068 107.074C96.7439 106.966 96.505 106.806 96.3039 106.605C96.1028 106.404 95.9435 106.165 95.8352 105.902C95.7269 105.639 95.6718 105.357 95.673 105.073V30.099C95.6718 29.8146 95.7269 29.5328 95.8352 29.2699C95.9435 29.0069 96.1028 28.768 96.3039 28.5669C96.505 28.3658 96.7439 28.2065 97.0068 28.0982C97.2698 27.9899 97.5516 27.9348 97.836 27.936H99.548C99.8324 27.9348 100.114 27.9899 100.377 28.0982C100.64 28.2065 100.879 28.3658 101.08 28.5669C101.281 28.768 101.44 29.0069 101.549 29.2699C101.657 29.5328 101.712 29.8146 101.711 30.099V105.106C101.706 105.675 101.476 106.219 101.071 106.619C100.665 107.018 100.117 107.24 99.548 107.236Z" fill="white"/>
<path d="M126.163 107.389H120.516C119.974 107.388 119.455 107.173 119.072 106.79C118.689 106.407 118.474 105.888 118.473 105.346V24.122C118.474 23.5803 118.689 23.061 119.072 22.678C119.455 22.2949 119.974 22.0795 120.516 22.079H126.163C126.705 22.0795 127.224 22.2949 127.607 22.678C127.99 23.061 128.205 23.5803 128.206 24.122V105.347C128.2 105.887 127.983 106.403 127.601 106.785C127.219 107.167 126.703 107.384 126.163 107.389V107.389Z" fill="white"/>
<path d="M88.194 120.185H65.515V124.961H88.194V120.185Z" fill="white"/>
<path d="M89.665 129.797H66.986V134.573H89.665V129.797Z" fill="white"/>
<path d="M52.538 69.1967L52.448 69.108C52 68.693 51.4068 68.4644 50.792 68.4699C50.1772 68.4755 49.5882 68.7146 49.148 69.1376L18.864 98.9784C18.428 99.4087 18.1807 99.9903 18.1751 100.598C18.1695 101.206 18.4061 101.792 18.834 102.23L18.954 102.349C19.4052 102.757 19.9972 102.981 20.6099 102.976C21.2227 102.97 21.8104 102.736 22.254 102.319L52.503 72.4524C52.9408 72.0226 53.1898 71.4406 53.1964 70.8316C53.2029 70.2227 52.9665 69.6355 52.538 69.1967V69.1967Z" fill="white"/>
<path d="M46.795 64.9939C42.3009 62.6512 37.163 61.7896 32.1354 62.5355C27.1079 63.2814 22.4553 65.5955 18.8604 69.1384C15.2655 72.6812 12.9176 77.2662 12.1613 82.2204C11.405 87.1747 12.28 92.2374 14.658 96.6657C14.9034 96.3034 15.1851 95.9663 15.499 95.6596L45.779 65.8177C46.109 65.5221 46.439 65.26 46.795 64.9939Z" fill="white"/>
<path d="M12.436 27.3418H58.966C59.144 27.335 59.3206 27.3759 59.477 27.46V17.7509H11.895V27.46C12.0632 27.3788 12.2487 27.3383 12.436 27.3418V27.3418Z" fill="white"/>
<path d="M56.713 74.7612C56.4676 75.1235 56.1858 75.4606 55.872 75.7674L25.593 105.604C25.2803 105.912 24.9384 106.19 24.572 106.433C29.0662 108.778 34.205 109.641 39.2339 108.897C44.2628 108.152 48.9169 105.838 52.5128 102.294C56.1088 98.7507 58.4571 94.1646 59.2131 89.2091C59.969 84.2536 59.0928 79.1898 56.713 74.7612V74.7612Z" fill="white"/>
<path d="M58.966 29.7984H12.436C12.258 29.8052 12.0814 29.7643 11.925 29.6802V45.8713H59.506V29.6802C59.3381 29.7613 59.153 29.8018 58.966 29.7984V29.7984ZM26.193 41.1946H21.417V36.5178H26.163V41.1946H26.193ZM35.685 41.1946H30.94V36.5178H35.686V41.1946H35.685ZM45.207 41.1946H40.462V36.5178H45.208L45.207 41.1946ZM54.729 41.1946H49.984V36.5178H54.73L54.729 41.1946Z" fill="white"/>
<path d="M71.372 130.232V13.0446C71.3723 12.1194 71.1875 11.2033 70.8284 10.3485C70.4692 9.49365 69.9426 8.71695 69.2787 8.06275C68.6148 7.40854 67.8266 6.88965 66.9591 6.53572C66.0916 6.18178 65.1619 5.99974 64.223 6H7.149C6.2101 5.99974 5.28036 6.18178 4.41288 6.53572C3.54541 6.88965 2.75721 7.40854 2.09331 8.06275C1.42941 8.71695 0.902826 9.49365 0.543648 10.3485C0.18447 11.2033 -0.000262495 12.1194 2.79945e-07 13.0446V130.232C-0.000262495 131.158 0.18447 132.074 0.543648 132.929C0.902826 133.783 1.42941 134.56 2.09331 135.214C2.75721 135.868 3.54541 136.387 4.41288 136.741C5.28036 137.095 6.2101 137.277 7.149 137.277H64.223C65.1626 137.28 66.0935 137.099 66.9621 136.746C67.8307 136.393 68.6199 135.874 69.2843 135.22C69.9487 134.565 70.4752 133.787 70.8335 132.931C71.1917 132.076 71.3748 131.158 71.372 130.232V130.232ZM7.149 15.4135C7.14714 15.1059 7.20725 14.801 7.32585 14.5165C7.44444 14.232 7.61917 13.9735 7.83989 13.756C8.06062 13.5385 8.32295 13.3663 8.6117 13.2494C8.90044 13.1326 9.20985 13.0733 9.522 13.0752H61.85C62.1621 13.0733 62.4716 13.1326 62.7603 13.2494C63.049 13.3663 63.3114 13.5385 63.5321 13.756C63.7528 13.9735 63.9276 14.232 64.0462 14.5165C64.1647 14.801 64.2249 15.1059 64.223 15.4135V48.2402C64.2249 48.5478 64.1647 48.8527 64.0462 49.1372C63.9276 49.4217 63.7528 49.6802 63.5321 49.8977C63.3114 50.1152 63.049 50.2874 62.7603 50.4043C62.4716 50.5211 62.1621 50.5804 61.85 50.5785H9.522C9.20985 50.5804 8.90044 50.5211 8.6117 50.4043C8.32295 50.2874 8.06062 50.1152 7.83989 49.8977C7.61917 49.6802 7.44444 49.4217 7.32585 49.1372C7.20725 48.8527 7.14714 48.5478 7.149 48.2402V15.4135ZM64.223 55.2552V59.9319H57.074V55.2552H64.223ZM7.149 55.2552H14.3V59.9319H7.151L7.149 55.2552ZM9.522 130.232C8.26409 130.23 7.05846 129.736 6.16899 128.86C5.27951 127.983 4.77864 126.795 4.776 125.556C4.77864 124.316 5.27951 123.128 6.16899 122.252C7.05846 121.375 8.26409 120.882 9.522 120.879C10.783 120.88 11.9924 121.373 12.8868 122.249C13.7813 123.125 14.2885 124.313 14.298 125.556C14.2984 126.172 14.1749 126.783 13.9347 127.353C13.6945 127.922 13.3422 128.439 12.8982 128.874C12.4543 129.309 11.9274 129.653 11.3479 129.886C10.7684 130.119 10.1479 130.237 9.522 130.232V130.232ZM26.194 130.232C24.9361 130.23 23.7305 129.736 22.841 128.86C21.9515 127.983 21.4506 126.795 21.448 125.556C21.4506 124.316 21.9515 123.128 22.841 122.252C23.7305 121.375 24.9361 120.882 26.194 120.879C27.4519 120.882 28.6575 121.375 29.547 122.252C30.4365 123.128 30.9374 124.316 30.94 125.556C30.9412 126.17 30.8192 126.779 30.5811 127.347C30.3431 127.915 29.9935 128.431 29.5526 128.865C29.1116 129.3 28.588 129.644 28.0116 129.879C27.4353 130.113 26.8176 130.234 26.194 130.232V130.232ZM15.71 105.783C15.65 105.723 15.56 105.664 15.5 105.605C15.44 105.546 15.38 105.457 15.32 105.398C12.6703 102.789 10.5683 99.6899 9.13419 96.2794C7.70009 92.869 6.96195 89.2135 6.96195 85.5218C6.96195 81.8301 7.70009 78.1746 9.13419 74.7642C10.5683 71.3537 12.6703 68.2551 15.32 65.6453C17.9684 63.0342 21.113 60.963 24.574 59.5498C28.035 58.1366 31.7446 57.4093 35.491 57.4093C39.2374 57.4093 42.947 58.1366 46.408 59.5498C49.869 60.963 53.0136 63.0342 55.662 65.6453C55.722 65.7044 55.812 65.734 55.872 65.8227C55.932 65.8818 55.992 65.9705 56.052 66.0296C58.7019 68.6393 60.8039 71.7379 62.2381 75.1484C63.6723 78.5589 64.4105 82.2144 64.4105 85.9061C64.4105 89.5978 63.6723 93.2533 62.2381 96.6638C60.8039 100.074 58.7019 103.173 56.052 105.783C50.6997 111.049 43.445 114.008 35.881 114.008C28.317 114.008 21.0623 111.049 15.71 105.783V105.783ZM42.835 130.232C41.8963 130.232 40.9787 129.958 40.1983 129.444C39.4178 128.93 38.8095 128.2 38.4503 127.345C38.0911 126.491 37.9971 125.55 38.1802 124.643C38.3633 123.736 38.8153 122.903 39.4791 122.249C40.1428 121.595 40.9885 121.149 41.9091 120.969C42.8297 120.788 43.784 120.881 44.6512 121.235C45.5184 121.589 46.2597 122.188 46.7812 122.957C47.3027 123.727 47.581 124.631 47.581 125.556C47.5784 126.795 47.0775 127.983 46.188 128.86C45.2985 129.736 44.0929 130.23 42.835 130.232ZM59.476 130.232C58.5373 130.232 57.6197 129.958 56.8393 129.444C56.0588 128.93 55.4505 128.2 55.0913 127.345C54.7321 126.491 54.6381 125.55 54.8212 124.643C55.0043 123.736 55.4563 122.903 56.1201 122.249C56.7838 121.595 57.6295 121.149 58.5501 120.969C59.4707 120.788 60.425 120.881 61.2922 121.235C62.1594 121.589 62.9007 122.188 63.4222 122.957C63.9437 123.727 64.222 124.631 64.222 125.556C64.2194 126.795 63.7186 127.983 62.8294 128.859C61.9401 129.736 60.7347 130.23 59.477 130.232H59.476Z" fill="white"/>
<path d="M131.868 40.853V28.837C131.875 28.5814 131.834 28.3268 131.748 28.086L129.348 20.877C129.192 20.3952 128.886 19.9755 128.476 19.6785C128.066 19.3816 127.572 19.2228 127.065 19.225V0H122.259V19.225C121.754 19.2272 121.261 19.3877 120.852 19.6841C120.442 19.9804 120.136 20.3976 119.976 20.877L117.576 28.086C117.492 28.3274 117.452 28.5816 117.456 28.837V40.853H112.65V45.659H117.456V105.736C117.459 106.372 117.712 106.981 118.162 107.43C118.611 107.88 119.22 108.133 119.856 108.136H122.256V124.958C122.252 126.232 121.745 127.452 120.844 128.352C119.944 129.253 118.724 129.76 117.45 129.764H79V134.57H117.45C118.713 134.572 119.963 134.324 121.13 133.842C122.297 133.359 123.357 132.651 124.25 131.758C125.143 130.865 125.851 129.805 126.334 128.638C126.816 127.471 127.064 126.221 127.062 124.958V108.14H129.462C130.098 108.137 130.707 107.884 131.156 107.434C131.606 106.985 131.859 106.376 131.862 105.74V45.659H136.668V40.853H131.868ZM127.062 103.334H122.256V45.659H127.062V103.334ZM127.062 40.853H122.256V29.228L123.998 24.028H125.35L127.092 29.228V40.853H127.062Z" fill="white"/>
</g>
<defs>
<clipPath id="clip0">
<rect width="135.355" height="137.277" fill="white"/>
</clipPath>
</defs>
</svg>
