<svg xmlns="http://www.w3.org/2000/svg" width="135.355" height="137.277" viewBox="0 0 135.355 137.277"><defs><style>.a{fill:#354ea0;}</style></defs><g transform="translate(77.68 0)"><path class="a" d="M275.868,197.853V185.837a2.075,2.075,0,0,0-.12-.751l-2.4-7.209a2.389,2.389,0,0,0-2.283-1.652V157h-4.806v19.225a2.418,2.418,0,0,0-2.283,1.652l-2.4,7.209a2.183,2.183,0,0,0-.12.751v12.016h-4.806v4.806h4.806v60.077a2.41,2.41,0,0,0,2.4,2.4h2.4v16.822a4.82,4.82,0,0,1-4.806,4.806H223v4.806h38.45a9.6,9.6,0,0,0,9.612-9.612V265.14h2.4a2.41,2.41,0,0,0,2.4-2.4V202.659h4.806v-4.806Zm-4.806,62.481h-4.806V202.659h4.806Zm0-62.481h-4.806V186.228l1.742-5.2h1.352l1.742,5.2v11.625Z" transform="translate(-223 -157)"/></g><g transform="translate(77.68 0)"><path class="a" d="M247.031,197.853V185.837a2.074,2.074,0,0,0-.12-.751l-2.4-7.209a2.39,2.39,0,0,0-2.283-1.652V157h-4.806v19.225a2.418,2.418,0,0,0-2.283,1.652l-2.4,7.209a2.183,2.183,0,0,0-.12.751v12.016h-4.806v4.806h4.806v60.077a2.41,2.41,0,0,0,2.4,2.4h2.4v9.612a2.41,2.41,0,0,1-2.4,2.4H223v4.806h12.016a7.192,7.192,0,0,0,7.209-7.209V265.14h2.4a2.41,2.41,0,0,0,2.4-2.4V202.659h4.806v-4.806Zm-4.806,62.481h-4.806V202.659h4.806Zm0-62.481h-4.806V186.228l1.742-5.2h1.352l1.742,5.2v11.625Z" transform="translate(-223 -157)"/></g><path class="a" d="M286.775,329.3h-1.712a2.154,2.154,0,0,1-2.163-2.163V252.163A2.154,2.154,0,0,1,285.063,250h1.712a2.154,2.154,0,0,1,2.163,2.163V327.17A2.147,2.147,0,0,1,286.775,329.3Z" transform="translate(-187.227 -222.064)"/><path class="a" d="M270.59,315.81h-5.647a2.045,2.045,0,0,1-2.043-2.043V232.543a2.045,2.045,0,0,1,2.043-2.043h5.647a2.045,2.045,0,0,1,2.043,2.043v81.225A2.026,2.026,0,0,1,270.59,315.81Z" transform="translate(-173.234 -208.421)"/><path class="a" d="M366.49,315.81h-5.647a2.045,2.045,0,0,1-2.043-2.043V232.543a2.045,2.045,0,0,1,2.043-2.043h5.647a2.045,2.045,0,0,1,2.043,2.043v81.225A2.064,2.064,0,0,1,366.49,315.81Z" transform="translate(-240.327 -208.421)"/><rect class="a" width="22.679" height="4.776" transform="translate(65.515 120.185)"/><rect class="a" width="22.679" height="4.776" transform="translate(66.986 129.797)"/><g transform="translate(0 4.055)"><path class="a" d="M59.264,382.277l-.09-.09a2.386,2.386,0,0,0-3.3.03L25.59,412.5a2.357,2.357,0,0,0-.03,3.3l.12.12a2.415,2.415,0,0,0,3.3-.03l30.249-30.309A2.357,2.357,0,0,0,59.264,382.277Z" transform="translate(-6.726 -318.144)"/><path class="a" d="M38.9,363.364A23.779,23.779,0,0,0,6.763,395.505a6.593,6.593,0,0,1,.841-1.021L37.884,364.2C38.214,363.9,38.544,363.634,38.9,363.364Z" transform="translate(7.895 -303.496)"/><path class="a" d="M4.541,219.933h46.53a.987.987,0,0,1,.511.12V210.2H4v9.853A1.178,1.178,0,0,1,4.541,219.933Z" transform="translate(7.895 -198.275)"/><path class="a" d="M78.341,402.8a6.6,6.6,0,0,1-.841,1.021L47.221,434.1a6.916,6.916,0,0,1-1.021.841A23.778,23.778,0,0,0,78.341,402.8Z" transform="translate(-21.628 -333.02)"/><path class="a" d="M51.141,250.62H4.611a.987.987,0,0,1-.511-.12v16.431H51.681V250.5A1.178,1.178,0,0,1,51.141,250.62ZM18.368,262.185H13.592v-4.746h4.746v4.746Zm9.492,0H23.115v-4.746h4.746v4.746Zm9.522,0H32.637v-4.746h4.746Zm9.522,0H42.159v-4.746h4.746Z" transform="translate(7.825 -226.469)"/><path class="a" d="M35.772,296.573V177.649a7.147,7.147,0,0,0-7.149-7.149H-28.451a7.147,7.147,0,0,0-7.149,7.149V296.573a7.147,7.147,0,0,0,7.149,7.149H28.623A7.128,7.128,0,0,0,35.772,296.573Zm-64.223-116.52a2.359,2.359,0,0,1,2.373-2.373H26.25a2.359,2.359,0,0,1,2.373,2.373v33.313a2.359,2.359,0,0,1-2.373,2.373H-26.078a2.359,2.359,0,0,1-2.373-2.373Zm57.074,40.432v4.746H21.474v-4.746Zm-57.074,0H-21.3v4.746h-7.149Zm2.373,76.088a4.756,4.756,0,0,1-4.746-4.746,4.756,4.756,0,0,1,4.746-4.746,4.782,4.782,0,0,1,4.776,4.746A4.743,4.743,0,0,1-26.078,296.573Zm16.672,0a4.756,4.756,0,0,1-4.746-4.746,4.756,4.756,0,0,1,4.746-4.746,4.756,4.756,0,0,1,4.746,4.746A4.737,4.737,0,0,1-9.406,296.573ZM-19.89,271.761c-.06-.06-.15-.12-.21-.18s-.12-.15-.18-.21a28.519,28.519,0,0,1,0-40.342,28.519,28.519,0,0,1,40.342,0c.06.06.15.09.21.18.06.06.12.15.18.21a28.518,28.518,0,0,1,0,40.342A28.546,28.546,0,0,1-19.89,271.761ZM7.235,296.573a4.746,4.746,0,1,1,4.746-4.746A4.756,4.756,0,0,1,7.235,296.573Zm16.641,0a4.746,4.746,0,1,1,4.746-4.746A4.756,4.756,0,0,1,23.877,296.573Z" transform="translate(35.6 -170.5)"/></g></svg>