<svg width="77" height="116" viewBox="0 0 77 116" fill="none" xmlns="http://www.w3.org/2000/svg">
<g filter="url(#filter0_d)">
<g clip-path="url(#clip0)">
<path d="M71.811 24.333C71.581 24.1052 71.3069 23.9268 71.0054 23.8088C70.7039 23.6909 70.3815 23.6358 70.058 23.647H57.014C56.2529 19.659 54.5823 15.9002 52.132 12.663H69.904C70.228 12.6764 70.5512 12.6225 70.8533 12.5046C71.1553 12.3867 71.4296 12.2075 71.6588 11.9781C71.8881 11.7488 72.0672 11.4744 72.185 11.1723C72.3028 10.8702 72.3566 10.547 72.343 10.223V2.441C72.3564 2.11704 72.3025 1.79381 72.1847 1.49172C72.0669 1.18964 71.8877 0.915253 71.6586 0.685885C71.4294 0.456517 71.1551 0.277146 70.8531 0.159094C70.5512 0.0410417 70.228 -0.0131286 69.904 1.90712e-06H6.441C6.11698 -0.012958 5.79377 0.0413138 5.49175 0.1594C5.18973 0.277486 4.91543 0.456827 4.68613 0.686131C4.45682 0.915436 4.27749 1.18973 4.1594 1.49176C4.04131 1.79378 3.98704 2.11698 4 2.441V12.585C4.0088 13.2297 4.26879 13.8454 4.72468 14.3013C5.18056 14.7572 5.79635 15.0172 6.441 15.026H17.501C28.2303 15.026 35.0443 17.899 37.943 23.645H6.443C6.11897 23.632 5.79577 23.6863 5.49375 23.8044C5.19173 23.9225 4.91744 24.1018 4.68813 24.3311C4.45883 24.5604 4.27949 24.8347 4.1614 25.1368C4.04331 25.4388 3.98904 25.762 4.002 26.086V33.867C3.98918 34.1909 4.04356 34.514 4.1617 34.8159C4.27985 35.1178 4.45922 35.392 4.68851 35.6212C4.9178 35.8504 5.19205 36.0297 5.494 36.1477C5.79595 36.2657 6.11906 36.32 6.443 36.307H39.015C38.4675 38.3625 37.4863 40.277 36.1373 41.9216C34.7882 43.5663 33.1027 44.903 31.194 45.842C27.0993 48.0293 21.6963 49.123 14.985 49.123H6.441C5.79635 49.1318 5.18056 49.3918 4.72468 49.8477C4.26879 50.3036 4.0088 50.9193 4 51.564V61.252C3.99353 61.5637 4.05107 61.8735 4.16906 62.1621C4.28705 62.4507 4.46299 62.7121 4.686 62.93C14.4493 73.3033 27.1113 87.8217 42.672 106.485C42.8905 106.782 43.1787 107.021 43.5112 107.181C43.8438 107.34 44.2105 107.416 44.579 107.4H59.454C59.9206 107.434 60.386 107.32 60.7835 107.073C61.1809 106.826 61.4899 106.459 61.666 106.026C61.9184 105.624 62.0258 105.147 61.9703 104.675C61.9148 104.204 61.6999 103.765 61.361 103.432C46.5163 85.2267 34.846 71.5983 26.35 62.547C34.9953 61.5303 42.013 58.7337 47.403 54.157C52.77 49.6224 56.274 43.266 57.243 36.307H70.058C70.3819 36.3196 70.7048 36.2652 71.0067 36.1471C71.3085 36.0289 71.5826 35.8497 71.8118 35.6205C72.0411 35.3914 72.2204 35.1174 72.3387 34.8156C72.4569 34.5138 72.5115 34.1909 72.499 33.867V26.087C72.51 25.7632 72.4547 25.4405 72.3364 25.1389C72.218 24.8372 72.0393 24.563 71.811 24.333V24.333Z" fill="white"/>
</g>
<rect x="4.5" y="0.5" width="67.499" height="106.4" stroke="white"/>
</g>
<defs>
<filter id="filter0_d" x="0" y="0" width="76.499" height="115.4" filterUnits="userSpaceOnUse" color-interpolation-filters="sRGB">
<feFlood flood-opacity="0" result="BackgroundImageFix"/>
<feColorMatrix in="SourceAlpha" type="matrix" values="0 0 0 0 0 0 0 0 0 0 0 0 0 0 0 0 0 0 127 0"/>
<feOffset dy="4"/>
<feGaussianBlur stdDeviation="2"/>
<feColorMatrix type="matrix" values="0 0 0 0 0 0 0 0 0 0 0 0 0 0 0 0 0 0 0.25 0"/>
<feBlend mode="normal" in2="BackgroundImageFix" result="effect1_dropShadow"/>
<feBlend mode="normal" in="SourceGraphic" in2="effect1_dropShadow" result="shape"/>
</filter>
<clipPath id="clip0">
<rect x="4" width="68.499" height="107.4" fill="white"/>
</clipPath>
</defs>
</svg>
