<svg xmlns="http://www.w3.org/2000/svg" width="68.499" height="107.4" viewBox="0 0 68.499 107.4"><defs><style>.a{fill:#222;}</style></defs><g transform="translate(-72.806)"><path class="a" d="M140.617,24.333a2.374,2.374,0,0,0-1.753-.686H125.82a26.4,26.4,0,0,0-4.882-10.984H138.71a2.344,2.344,0,0,0,2.439-2.44V2.441A2.346,2.346,0,0,0,138.71,0H75.247a2.349,2.349,0,0,0-2.441,2.441V12.585a2.475,2.475,0,0,0,2.441,2.441h11.06q16.094,0,20.442,8.619h-31.5a2.349,2.349,0,0,0-2.441,2.441v7.781a2.349,2.349,0,0,0,2.441,2.44h32.572A14.9,14.9,0,0,1,100,45.842q-6.142,3.281-16.209,3.281H75.247a2.475,2.475,0,0,0-2.441,2.441v9.688a2.28,2.28,0,0,0,.686,1.678q14.645,15.56,37.986,43.555a2.249,2.249,0,0,0,1.907.915H128.26a2.213,2.213,0,0,0,2.212-1.374,2.084,2.084,0,0,0-.305-2.594Q107.9,76.124,95.156,62.547q12.968-1.525,21.053-8.39a28.517,28.517,0,0,0,9.84-17.85h12.815a2.351,2.351,0,0,0,2.441-2.44v-7.78A2.375,2.375,0,0,0,140.617,24.333Z"/></g></svg>