<svg width="101" height="119" viewBox="0 0 101 119" fill="none" xmlns="http://www.w3.org/2000/svg">
<path d="M100.682 32.117V32.025C100.63 30.888 100.596 29.685 100.575 28.346C100.516 25.1859 99.2661 22.1645 97.0756 19.886C94.8851 17.6074 91.9154 16.2396 88.76 16.056C75.15 15.301 64.622 10.859 55.626 2.09101L55.549 2.01801C54.1484 0.719503 52.3089 -0.00198364 50.399 -0.00198364C48.4891 -0.00198364 46.6496 0.719503 45.249 2.01801L45.172 2.09101C36.172 10.859 25.648 15.297 12.038 16.057C8.88364 16.2421 5.91531 17.6107 3.72622 19.8893C1.53714 22.168 0.288555 25.1888 0.230004 28.348C0.210004 29.677 0.175004 30.88 0.123004 32.026L0.118004 32.24C-0.145996 46.117 -0.474996 63.389 5.3 79.066C8.33702 87.4689 13.2242 95.0816 19.6 101.341C26.789 108.356 36.2 113.926 47.585 117.894C47.9597 118.024 48.343 118.128 48.732 118.206C49.8314 118.426 50.9636 118.426 52.063 118.206C52.4537 118.128 52.8387 118.023 53.215 117.892C64.582 113.916 73.988 108.344 81.17 101.33C87.5443 95.0673 92.4311 87.4534 95.47 79.05C101.274 63.326 100.946 46.021 100.682 32.117ZM88.957 76.646C82.863 93.169 70.423 104.517 50.926 111.335C50.8541 111.36 50.7806 111.38 50.706 111.395C50.5047 111.435 50.2974 111.435 50.096 111.395C50.0218 111.38 49.9486 111.36 49.877 111.336C30.359 104.53 17.91 93.188 11.821 76.665C6.5 62.214 6.8 46.359 7.063 32.372V32.294C7.117 31.094 7.153 29.833 7.173 28.449C7.20042 27.0446 7.75687 25.7023 8.73112 24.6904C9.70538 23.6785 11.0256 23.0716 12.428 22.991C19.5357 22.6933 26.5364 21.1534 33.113 18.441C39.3969 15.7644 45.1172 11.9224 49.972 7.11801C50.0897 7.0112 50.243 6.95203 50.402 6.95203C50.561 6.95203 50.7143 7.0112 50.832 7.11801C55.6858 11.922 61.4047 15.7642 67.687 18.442C74.2639 21.1544 81.265 22.6943 88.373 22.992C89.7753 23.0726 91.0954 23.6796 92.0695 24.6915C93.0436 25.7034 93.5998 27.0457 93.627 28.45C93.648 29.841 93.684 31.1 93.738 32.294C94 46.301 94.3 62.165 88.957 76.646Z" fill="white"/>
</svg>
