<svg xmlns="http://www.w3.org/2000/svg" width="95.633" height="112.304" viewBox="0 0 95.633 112.304"><g transform="translate(0 0.001)"><path d="M95.521,30.47l0-.087c-.049-1.079-.081-2.22-.1-3.49A11.9,11.9,0,0,0,84.21,15.232C71.3,14.512,61.309,10.3,52.774,1.983L52.7,1.913a7.187,7.187,0,0,0-9.768,0l-.073.069C34.326,10.3,24.338,14.512,11.426,15.233A11.9,11.9,0,0,0,.219,26.894C.2,28.155.166,29.3.118,30.383l-.005.2C-.139,43.752-.451,60.139,5.031,75.012A56.554,56.554,0,0,0,18.6,96.145c6.82,6.656,15.753,11.94,26.551,15.7a8.223,8.223,0,0,0,1.088.3,8.037,8.037,0,0,0,3.16,0,8.249,8.249,0,0,0,1.093-.3c10.784-3.772,19.708-9.058,26.522-15.713A56.632,56.632,0,0,0,90.58,75C96.083,60.079,95.772,43.661,95.521,30.47ZM84.4,72.716c-5.782,15.676-17.584,26.442-36.082,32.911a1.656,1.656,0,0,1-.209.057,1.479,1.479,0,0,1-.579,0,1.642,1.642,0,0,1-.207-.056C28.8,99.17,16.992,88.411,11.215,72.734,6.162,59.024,6.448,43.982,6.7,30.712l0-.074c.051-1.141.086-2.335.1-3.647a5.29,5.29,0,0,1,4.986-5.178A57.817,57.817,0,0,0,31.417,17.5,51.343,51.343,0,0,0,47.41,6.752a.608.608,0,0,1,.816,0A51.362,51.362,0,0,0,64.218,17.5a57.82,57.82,0,0,0,19.625,4.317,5.289,5.289,0,0,1,4.985,5.179c.02,1.319.054,2.514.105,3.647C89.185,43.924,89.465,58.978,84.4,72.716Zm0,0" transform="translate(0 0)"/><path d="M118.386,128.41A27.988,27.988,0,1,0,146.374,156.4,28.019,28.019,0,0,0,118.386,128.41Zm0,49.386a21.4,21.4,0,1,1,21.4-21.4A21.422,21.422,0,0,1,118.386,177.8Zm0,0" transform="translate(-70.57 -100.245)"/><path d="M175.825,212.957l-13,13-3.528-3.528a3.295,3.295,0,0,0-4.66,4.659l5.859,5.859a3.295,3.295,0,0,0,4.659,0l15.33-15.33a3.295,3.295,0,1,0-4.66-4.659Zm0,0" transform="translate(-119.966 -165.493)"/></g></svg>