<svg xmlns="http://www.w3.org/2000/svg" width="100.8" height="118.372" viewBox="0 0 100.8 118.372"><g transform="translate(0 0.001)"><path d="M100.682,32.116l0-.092c-.052-1.137-.086-2.34-.107-3.679A12.546,12.546,0,0,0,88.76,16.055C75.15,15.3,64.622,10.858,55.626,2.09l-.077-.073a7.575,7.575,0,0,0-10.3,0l-.077.073c-9,8.768-19.524,13.206-33.134,13.966A12.545,12.545,0,0,0,.23,28.347c-.02,1.329-.055,2.532-.107,3.678l-.005.214C-.146,46.116-.475,63.388,5.3,79.065A59.609,59.609,0,0,0,19.6,101.34c7.189,7.015,16.6,12.585,27.985,16.553a8.669,8.669,0,0,0,1.147.312,8.471,8.471,0,0,0,3.331,0,8.694,8.694,0,0,0,1.152-.314c11.367-3.976,20.773-9.548,27.955-16.562a59.692,59.692,0,0,0,14.3-22.28C101.274,63.325,100.946,46.02,100.682,32.116ZM88.957,76.645c-6.094,16.523-18.534,27.871-38.031,34.689a1.744,1.744,0,0,1-.22.06,1.559,1.559,0,0,1-.61,0,1.73,1.73,0,0,1-.219-.059C30.359,104.529,17.91,93.187,11.821,76.664,6.5,62.213,6.8,46.358,7.063,32.371l0-.078c.054-1.2.09-2.461.11-3.845a5.576,5.576,0,0,1,5.255-5.458,60.941,60.941,0,0,0,20.685-4.55A54.117,54.117,0,0,0,49.972,7.117a.64.64,0,0,1,.86,0A54.137,54.137,0,0,0,67.687,18.441a60.945,60.945,0,0,0,20.686,4.55,5.575,5.575,0,0,1,5.254,5.458c.021,1.391.057,2.65.111,3.844C94,46.3,94.3,62.164,88.957,76.645Zm0,0" transform="translate(0)"/><path d="M119.9,128.41a29.5,29.5,0,1,0,29.5,29.5A29.533,29.533,0,0,0,119.9,128.41Zm0,52.054a22.554,22.554,0,1,1,22.553-22.554A22.579,22.579,0,0,1,119.9,180.464Zm0,0" transform="translate(-69.499 -98.723)"/><path d="M177.022,213.009l-13.7,13.7-3.719-3.719a3.473,3.473,0,0,0-4.912,4.911l6.175,6.175a3.473,3.473,0,0,0,4.911,0l16.158-16.158a3.473,3.473,0,0,0-4.912-4.911Zm0,0" transform="translate(-118.144 -162.981)"/></g></svg>