<svg xmlns="http://www.w3.org/2000/svg" width="127.142" height="136.972" viewBox="0 0 127.142 136.972"><defs><style>.a{fill:#fff;}</style></defs><path class="a" d="M168.9,0h19.29V20.78H168.9Zm0,0" transform="translate(-122.5)"/><path class="a" d="M0,114.035H67.545v12.85H0Zm0,0" transform="translate(0 -83.267)"/><path class="a" d="M25.73,0H45.019V20.78H25.73Zm0,0" transform="translate(-19.368)"/><path class="a" d="M108.032,119.035a19.256,19.256,0,0,0-19.11,19.357v55.675A23.974,23.974,0,0,1,41.045,196.2h10.93V178.534A34.17,34.17,0,0,0,73.8,146.594v-6.5H0v6.5a34.172,34.172,0,0,0,21.822,31.94V196.2H32.917a32.079,32.079,0,0,0,64.109-2.129V138.392a11.006,11.006,0,1,1,22.011,0v88.181h8.1V138.392a19.256,19.256,0,0,0-19.11-19.357Zm0,0" transform="translate(0 -89.6)"/></svg>