<svg width="141" height="57" viewBox="0 0 141 57" fill="none" xmlns="http://www.w3.org/2000/svg">
<g clip-path="url(#clip0)">
<path d="M24.476 23.054C16.791 20.715 13.17 19.159 13.17 15.018C13.17 10.508 20.08 10.158 22.199 10.158C26.2117 10.2215 30.1501 11.2505 33.681 13.158C34.1792 13.4274 34.7275 13.5913 35.2918 13.6396C35.8561 13.688 36.4243 13.6196 36.9611 13.4388C37.4978 13.2581 37.9916 12.9688 38.4117 12.589C38.8318 12.2091 39.1692 11.7469 39.403 11.231L40.227 9.412C40.6527 8.47108 40.7102 7.40473 40.388 6.42351C40.0659 5.44229 39.3876 4.6175 38.487 4.112C33.6049 1.44271 28.1351 0.0309165 22.571 0.0039978C10.56 0.0039978 2.49 6.249 2.49 15.543C2.49 27.143 12.372 30.083 20.314 32.443C28.396 34.843 31.772 36.512 31.749 40.643C31.749 46.178 23.984 46.609 21.604 46.609C16.4463 46.4783 11.4777 44.6399 7.477 41.382C6.99617 40.9994 6.43597 40.729 5.83731 40.5906C5.23864 40.4521 4.61661 40.4491 4.01663 40.5817C3.41665 40.7144 2.85385 40.9793 2.36932 41.3572C1.88479 41.7351 1.49077 42.2164 1.216 42.766L0.435998 44.326C0.0206752 45.1558 -0.102883 46.1013 0.0852698 47.01C0.273423 47.9186 0.762308 48.7374 1.473 49.334C7.12478 53.9995 14.2009 56.5942 21.529 56.688C34.029 56.688 42.429 50.114 42.429 40.346C42.476 28.534 32.499 25.496 24.476 23.054Z" fill="black"/>
<path d="M71.261 0.0750122C54.782 0.0750122 41.874 12.492 41.874 28.346C41.874 44.281 54.782 56.765 71.261 56.765C87.698 56.765 100.574 44.282 100.574 28.346C100.574 12.492 87.698 0.0750122 71.261 0.0750122ZM71.261 46.904C60.661 46.904 52.032 38.579 52.032 28.346C52.032 18.153 60.658 9.86201 71.261 9.86201C81.781 9.86201 90.341 18.154 90.341 28.346C90.342 38.578 81.782 46.904 71.261 46.904Z" fill="black"/>
<path d="M123.045 23.054C115.361 20.714 111.745 19.154 111.745 15.018C111.745 10.508 118.656 10.158 120.775 10.158C124.788 10.2215 128.726 11.2505 132.257 13.158C132.755 13.4272 133.303 13.591 133.868 13.6393C134.432 13.6875 135 13.6191 135.536 13.4383C136.073 13.2576 136.567 12.9684 136.987 12.5886C137.407 12.2089 137.744 11.7467 137.978 11.231L138.803 9.412C139.228 8.47104 139.286 7.40478 138.964 6.42362C138.642 5.44246 137.963 4.61767 137.063 4.112C132.181 1.44279 126.711 0.0310005 121.147 0.0039978C109.136 0.0039978 101.066 6.249 101.066 15.543C101.066 27.143 110.948 30.083 118.889 32.443C126.971 34.843 130.346 36.512 130.324 40.643C130.324 46.179 122.558 46.609 120.177 46.609C115.019 46.4796 110.05 44.6426 106.049 41.386C105.568 41.0034 105.008 40.733 104.409 40.5946C103.811 40.4561 103.189 40.4531 102.589 40.5857C101.989 40.7184 101.426 40.9833 100.941 41.3612C100.457 41.7391 100.063 42.2204 99.788 42.77L99.008 44.33C98.5928 45.1599 98.4694 46.1055 98.6577 47.0142C98.8461 47.9228 99.3351 48.7415 100.046 49.338C105.698 54.0032 112.774 56.5978 120.102 56.692C132.602 56.692 141.002 50.118 141.002 40.35C141.045 28.534 131.065 25.496 123.045 23.054Z" fill="black"/>
</g>
<rect x="0.5" y="0.5" width="140" height="55.764" stroke="white"/>
<defs>
<clipPath id="clip0">
</clipPath>
</defs>
</svg>
