<svg xmlns="http://www.w3.org/2000/svg" width="141" height="56.764" viewBox="0 0 141 56.764"><defs><style>.a{fill:#fff;}</style></defs><g transform="translate(-0.001 -118.718)"><path class="a" d="M24.477,141.772c-7.685-2.339-11.306-3.895-11.306-8.036,0-4.51,6.91-4.86,9.029-4.86a24.989,24.989,0,0,1,11.482,3,4.127,4.127,0,0,0,5.722-1.927l.824-1.819a4.127,4.127,0,0,0-1.74-5.3,33.515,33.515,0,0,0-15.916-4.108c-12.011,0-20.081,6.245-20.081,15.539,0,11.6,9.882,14.54,17.824,16.9,8.082,2.4,11.458,4.069,11.435,8.2,0,5.535-7.765,5.966-10.145,5.966A23.307,23.307,0,0,1,7.478,160.1a4.127,4.127,0,0,0-6.261,1.384l-.78,1.56a4.127,4.127,0,0,0,1.037,5.008,32.151,32.151,0,0,0,20.056,7.354c12.5,0,20.9-6.574,20.9-16.342C42.477,147.252,32.5,144.214,24.477,141.772Z" transform="translate(0 0)"/><path class="a" d="M147.419,118.929c-16.479,0-29.387,12.417-29.387,28.271,0,15.935,12.908,28.419,29.387,28.419,16.437,0,29.313-12.483,29.313-28.419C176.732,131.346,163.856,118.929,147.419,118.929Zm0,46.829c-10.6,0-19.229-8.325-19.229-18.558,0-10.193,8.626-18.484,19.229-18.484,10.52,0,19.08,8.292,19.08,18.484C166.5,157.432,157.94,165.758,147.419,165.758Z" transform="translate(-76.157 -0.136)"/><path class="a" d="M302.314,141.772c-7.684-2.34-11.3-3.9-11.3-8.036,0-4.51,6.911-4.86,9.03-4.86a24.988,24.988,0,0,1,11.482,3,4.127,4.127,0,0,0,5.721-1.927l.825-1.819a4.128,4.128,0,0,0-1.74-5.3,33.517,33.517,0,0,0-15.916-4.108c-12.011,0-20.081,6.245-20.081,15.539,0,11.6,9.882,14.54,17.823,16.9,8.082,2.4,11.457,4.069,11.435,8.2,0,5.536-7.766,5.966-10.147,5.966a23.308,23.308,0,0,1-14.128-5.223,4.127,4.127,0,0,0-6.261,1.384l-.78,1.56a4.127,4.127,0,0,0,1.038,5.008,32.156,32.156,0,0,0,20.056,7.354c12.5,0,20.9-6.574,20.9-16.342C320.314,147.252,310.334,144.214,302.314,141.772Z" transform="translate(-179.268 0)"/></g></svg>