<svg xmlns="http://www.w3.org/2000/svg" width="29.454" height="29.454" viewBox="0 0 29.454 29.454"><defs><style>.a{fill:#cecccc;}</style></defs><g transform="translate(0 0)"><path class="a" d="M14.727,0A14.727,14.727,0,1,0,29.455,14.727,14.744,14.744,0,0,0,14.727,0ZM21.3,11.357c.007.146.01.293.01.44A9.642,9.642,0,0,1,6.466,19.918a6.845,6.845,0,0,0,5.019-1.4A3.393,3.393,0,0,1,8.318,16.16,3.4,3.4,0,0,0,9.849,16.1,3.39,3.39,0,0,1,7.13,12.779c0-.014,0-.029,0-.043a3.376,3.376,0,0,0,1.535.424A3.395,3.395,0,0,1,7.616,8.634,9.625,9.625,0,0,0,14.6,12.177a3.392,3.392,0,0,1,5.776-3.092,6.766,6.766,0,0,0,2.153-.823,3.4,3.4,0,0,1-1.493,1.876A6.739,6.739,0,0,0,22.987,9.6,6.819,6.819,0,0,1,21.3,11.357Z"/></g></svg>